<svg width="136" height="40" fill="none" xmlns="http://www.w3.org/2000/svg"><g clip-path="url(#a)"><path d="M6.827 28.917 3.432 30.93c-.46.303-.25.823 0 .928l13.183 7.387a2.583 2.583 0 0 0 2.517 0l13.357-7.485c.405-.24.339-.727 0-.891l-3.589-1.94c-.303-.2-.978-.133-1.217.03l-8.551 4.791a2.583 2.583 0 0 1-2.517 0L7.99 28.917c-.322-.198-.831-.187-1.162 0ZM16.615-.1a2.583 2.583 0 0 1 2.516 0l10.616 5.948c.424.214.463.79 0 1.05L27.33 8.245a2.999 2.999 0 0 1-2.926-.003L19.13 5.289a2.583 2.583 0 0 0-2.516 0l-5.279 2.957a3 3 0 0 1-2.928.003c-.81-.452-1.792-1-2.5-1.393-.393-.169-.474-.67 0-.957l10.707-6Z" fill="#1A2E44"/><path d="M34.488 8.853a2.43 2.43 0 0 1 1.258 2.115v17.209c0 .852-.533 1.01-1.102.713l-3.931-2.122v-11.57l-11.582 6.49a2.583 2.583 0 0 1-2.516 0l-11.581-6.49v11.569l-3.573 2.12c-.425.271-1.461.356-1.461-.71V10.968c0-.873.48-1.679 1.258-2.115 1.253-.656 2.548 0 2.548 0l14.067 7.9 14.045-7.9s1.248-.752 2.57 0Z" fill="#22D172"/><path fill-rule="evenodd" clip-rule="evenodd" d="M85.119 9a1.711 1.711 0 1 0 0 3.422 1.711 1.711 0 0 0 0-3.422Zm4.373 0a.169.169 0 0 0-.169.169v16.8c0 .093.076.168.17.168h2.598a.169.169 0 0 0 .168-.169v-16.8A.169.169 0 0 0 92.091 9h-2.599Zm5.756 0a.169.169 0 0 0-.169.169v16.8c0 .093.076.168.17.168h2.598a.169.169 0 0 0 .168-.169v-8.963h2.628a.169.169 0 0 0 .169-.168V14.35a.17.17 0 0 0-.169-.169h-2.628V9.17A.169.169 0 0 0 97.847 9h-2.599Zm-40.621 4.669a5.186 5.186 0 0 0-5.186 5.185v7.114c0 .094.076.17.17.17h2.597a.169.169 0 0 0 .17-.17v-7.114a2.25 2.25 0 0 1 4.499 0v7.114c0 .094.075.17.168.17h2.599a.169.169 0 0 0 .169-.17v-7.114a2.25 2.25 0 1 1 4.5 0v7.114c0 .094.075.17.168.17h2.598a.169.169 0 0 0 .17-.17v-7.114a5.186 5.186 0 0 0-8.904-3.615 5.17 5.17 0 0 0-3.718-1.57Zm20.322 0a6.293 6.293 0 0 0-6.293 6.293v.262a6.293 6.293 0 0 0 6.293 6.293c1.248 0 2.396-.437 3.357-1.127v.578c0 .094.076.17.169.17h2.598a.169.169 0 0 0 .17-.17v-6.006a6.293 6.293 0 0 0-6.294-6.293Zm39.409 0a6.293 6.293 0 0 0-6.293 6.293v.262a6.293 6.293 0 0 0 6.293 6.293c1.224 0 2.432-.545 3.358-1.244v.695c0 .094.075.17.168.17h2.599a.168.168 0 0 0 .168-.17v-6.006a6.293 6.293 0 0 0-6.293-6.293Zm14.764 0a6.293 6.293 0 0 0-6.293 6.293v10.961c0 .094.075.17.169.17h2.598a.17.17 0 0 0 .169-.17v-5.375a6.293 6.293 0 0 0 9.65-5.324v-.262a6.293 6.293 0 0 0-6.293-6.293Zm-21.949.415a5.592 5.592 0 0 0-5.592 5.592v6.293c0 .093.076.168.169.168h2.598a.169.169 0 0 0 .169-.169v-6.292a2.656 2.656 0 0 1 2.656-2.656.17.17 0 0 0 .12-.05.17.17 0 0 0 .049-.119v-2.598a.169.169 0 0 0-.169-.169Zm-23.324.097a.169.169 0 0 0-.17.17v11.617c0 .094.076.17.17.17h2.598a.169.169 0 0 0 .169-.17V14.35a.169.169 0 0 0-.17-.169H83.85ZM71.59 19.962a3.357 3.357 0 1 1 6.715 0v.262a3.357 3.357 0 0 1-6.715 0v-.262Zm39.41 0a3.357 3.357 0 1 1 6.715 0v.262a3.358 3.358 0 0 1-6.715 0v-.262Zm14.764 0a3.357 3.357 0 1 1 6.714 0v.262a3.357 3.357 0 1 1-6.714 0v-.262Z" fill="#1A2E44"/></g><defs><clipPath id="a"><path fill="#fff" d="M0 0h136v40H0z"/></clipPath></defs></svg>